HIERARCHY
ROOT hip
{
  OFFSET 0 0 0
  CHANNELS 6 Xposition Yposition Zposition Zrotation Yrotation Xrotation
  JOINT abdomen
  {
    OFFSET 0 20.6881 -0.73152
    CHANNELS 3 Zrotation Xrotation Yrotation
    JOINT chest
    {
      OFFSET 0 11.7043 -0.48768
      CHANNELS 3 Zrotation Xrotation Yrotation
      JOINT neck
      {
        OFFSET 0 22.1894 -2.19456
        CHANNELS 3 Zrotation Xrotation Yrotation
        JOINT head
        {
          OFFSET -0.24384 7.07133 1.2192
          CHANNELS 3 Zrotation Xrotation Yrotation
          JOINT leftEye
          {
            OFFSET 4.14528 8.04674 8.04672
            CHANNELS 3 Zrotation Xrotation Yrotation
            End Site
            {
              OFFSET 1 0 0
            }
          }
          JOINT rightEye
          {
            OFFSET -3.6576 8.04674 8.04672
            CHANNELS 3 Zrotation Xrotation Yrotation
            End Site
            {
              OFFSET 1 0 0
            }
          }
        }
      }
      JOINT rCollar
      {
        OFFSET -2.68224 19.2634 -4.8768
        CHANNELS 3 Zrotation Xrotation Yrotation
        JOINT rShldr
        {
          OFFSET -8.77824 -1.95073 1.46304
          CHANNELS 3 Zrotation Xrotation Yrotation
          JOINT rForeArm
          {
            OFFSET -28.1742 -1.7115 0.48768
            CHANNELS 3 Zrotation Xrotation Yrotation
            JOINT rHand
            {
              OFFSET -22.5879 0.773209 7.07136
              CHANNELS 3 Zrotation Xrotation Yrotation
              JOINT rThumb1
              {
                OFFSET -1.2192 -0.487915 3.41376
                CHANNELS 3 Zrotation Xrotation Yrotation
                JOINT rThumb2
                {
                  OFFSET -3.37035 -0.52449 3.41376
                  CHANNELS 3 Zrotation Xrotation Yrotation
                  End Site
                  {
                    OFFSET -1.78271 -1.18214 1.43049
                  }
                }
              }
              JOINT rIndex1
              {
                OFFSET -7.75947 0.938293 5.60832
                CHANNELS 3 Zrotation Xrotation Yrotation
                JOINT rIndex2
                {
                  OFFSET -2.54057 -0.884171 1.56538
                  CHANNELS 3 Zrotation Xrotation Yrotation
                  End Site
                  {
                    OFFSET -1.62519 -0.234802 1.16502
                  }
                }
              }
              JOINT rMid1
              {
                OFFSET -8.24714 1.18213 3.41376
                CHANNELS 3 Zrotation Xrotation Yrotation
                JOINT rMid2
                {
                  OFFSET -3.10165 -0.590103 1.0647
                  CHANNELS 3 Zrotation Xrotation Yrotation
                  End Site
                  {
                    OFFSET -2.48547 -0.328903 0.83742
                  }
                }
              }
              JOINT rRing1
              {
                OFFSET -8.82822 0.546677 1.51678
                CHANNELS 3 Zrotation Xrotation Yrotation
                JOINT rRing2
                {
                  OFFSET -2.60934 -0.819778 -0.0198488
                  CHANNELS 3 Zrotation Xrotation Yrotation
                  End Site
                  {
                    OFFSET -2.33842 -0.294052 0.168128
                  }
                }
              }
              JOINT rPinky1
              {
                OFFSET -8.27202 -0.0477905 -0.4584
                CHANNELS 3 Zrotation Xrotation Yrotation
                JOINT rPinky2
                {
                  OFFSET -1.82734 -0.647385 -0.700984
                  CHANNELS 3 Zrotation Xrotation Yrotation
                  End Site
                  {
                    OFFSET -1.69225 -0.51767 -0.607171
                  }
                }
              }
            }
          }
        }
      }
      JOINT lCollar
      {
        OFFSET 2.68224 19.2634 -4.8768
        CHANNELS 3 Zrotation Xrotation Yrotation
        JOINT lShldr
        {
          OFFSET 8.77824 -1.95073 1.46304
          CHANNELS 3 Zrotation Xrotation Yrotation
          JOINT lForeArm
          {
            OFFSET 28.1742 -1.7115 0.48768
            CHANNELS 3 Zrotation Xrotation Yrotation
            JOINT lHand
            {
              OFFSET 22.5879 0.773209 7.07136
              CHANNELS 3 Zrotation Xrotation Yrotation
              JOINT lThumb1
              {
                OFFSET 1.2192 -0.487915 3.41376
                CHANNELS 3 Zrotation Xrotation Yrotation
                JOINT lThumb2
                {
                  OFFSET 3.37035 -0.52449 3.41376
                  CHANNELS 3 Zrotation Xrotation Yrotation
                  End Site
                  {
                    OFFSET 1.78271 -1.18214 1.43049
                  }
                }
              }
              JOINT lIndex1
              {
                OFFSET 7.75947 0.938293 5.60832
                CHANNELS 3 Zrotation Xrotation Yrotation
                JOINT lIndex2
                {
                  OFFSET 2.54057 -0.884171 1.56538
                  CHANNELS 3 Zrotation Xrotation Yrotation
                  End Site
                  {
                    OFFSET 1.62519 -0.234802 1.16502
                  }
                }
              }
              JOINT lMid1
              {
                OFFSET 8.24714 1.18213 3.41376
                CHANNELS 3 Zrotation Xrotation Yrotation
                JOINT lMid2
                {
                  OFFSET 3.10165 -0.590103 1.0647
                  CHANNELS 3 Zrotation Xrotation Yrotation
                  End Site
                  {
                    OFFSET 2.48547 -0.328903 0.83742
                  }
                }
              }
              JOINT lRing1
              {
                OFFSET 8.82822 0.546677 1.51678
                CHANNELS 3 Zrotation Xrotation Yrotation
                JOINT lRing2
                {
                  OFFSET 2.60934 -0.819778 -0.0198488
                  CHANNELS 3 Zrotation Xrotation Yrotation
                  End Site
                  {
                    OFFSET 2.33842 -0.294052 0.168128
                  }
                }
              }
              JOINT lPinky1
              {
                OFFSET 8.27202 -0.0477905 -0.4584
                CHANNELS 3 Zrotation Xrotation Yrotation
                JOINT lPinky2
                {
                  OFFSET 1.82734 -0.647385 -0.700984
                  CHANNELS 3 Zrotation Xrotation Yrotation
                  End Site
                  {
                    OFFSET 1.69225 -0.51767 -0.607171
                  }
                }
              }
            }
          }
        }
      }
    }
  }
  JOINT rButtock
  {
    OFFSET -8.77824 4.35084 1.2192
    CHANNELS 3 Zrotation Xrotation Yrotation
    JOINT rThigh
    {
      OFFSET 0 -1.70687 -2.19456
      CHANNELS 3 Zrotation Xrotation Yrotation
      JOINT rShin
      {
        OFFSET 0 -36.8199 0.73152
        CHANNELS 3 Zrotation Xrotation Yrotation
        JOINT rFoot
        {
          OFFSET 0.73152 -45.1104 -5.12064
          CHANNELS 3 Zrotation Xrotation Yrotation
          End Site
          {
            OFFSET -1.1221 -3.69964 12.103
          }
        }
      }
    }
  }
  JOINT lButtock
  {
    OFFSET 8.77824 4.35084 1.2192
    CHANNELS 3 Zrotation Xrotation Yrotation
    JOINT lThigh
    {
      OFFSET 0 -1.70687 -2.19456
      CHANNELS 3 Zrotation Xrotation Yrotation
      JOINT lShin
      {
        OFFSET 0 -36.8199 0.73152
        CHANNELS 3 Zrotation Xrotation Yrotation
        JOINT lFoot
        {
          OFFSET -0.73152 -45.1104 -5.12064
          CHANNELS 3 Zrotation Xrotation Yrotation
          End Site
          {
            OFFSET 1.1221 -3.69964 12.103
          }
        }
      }
    }
  }
}
MOTION
Frames:	6
Frame Time:	0.00833333
4.414139 81.262314 -83.67135 4.3278117 -13.239916 5.416911 -3.9231806 -9.374764 4.147705 2.9227915 -9.961371 1.4289991 -3.7701588 23.9353 -21.134825 13.253298 -31.224417 -37.589363 -0.022469832 0.022597361 0.023093393 -0.018112896 -0.01647701 0.0038993321 0.02067929 -0.013992409 0.0048492625 55.454967 11.812675 93.811806 -28.358332 -38.433018 81.11758 -0.5309048 -21.62185 -3.1427608 0.011849483 0.020917082 0.022669435 0.00029387354 0.013577481 0.003970945 -0.0071660797 0.005544414 -0.04046333 7.719778 5.515328 0.45681188 0.0063743764 0.032513022 -0.0035656658 2.873697 0.9906208 0.14817956 0.014028138 0.049358066 0.013204717 10.327054 0.7501447 0.013994055 0.008443464 -0.0057596695 -0.008057105 2.2349398 -0.7356684 -0.22789328 0.0126547655 -0.018430429 0.0077931643 -0.43409988 23.660477 -106.67879 27.857222 -41.30707 -86.16412 0.9585956 26.878693 -4.142237 -0.011542546 -0.0030900498 -0.0039440496 0.0012524329 0.0113258725 -0.03133222 0.0067369645 0.0061631226 -0.027166342 -7.717624 5.451211 -0.43239978 0.024487814 -0.020107957 0.013523946 -2.9294407 0.9888205 -0.1264505 0.028750533 -0.010295453 0.008282379 -10.252313 0.7351524 -0.025526082 -0.022914907 0.04847422 0.013259296 -2.235734 -0.7263947 0.19269003 0.03058186 0.02456996 0.017649464 -16.731977 -33.878345 -20.609446 -1.9508569 71.44082 2.3864822 1.5101888 0.5450831 7.162475 -0.049790896 0.018674674 -0.0077127055 -15.090436 -26.774603 -6.106712 0.31769282 40.9725 -0.8185349 5.5328026 -23.710596 11.117535
1.6604309 82.10315 -78.46988 5.874681 2.752609 6.5751066 -5.702541 -9.849559 4.358022 2.224704 -11.624172 1.5768347 -4.9314837 20.510614 -17.398312 12.5359955 -32.554634 -30.23521 -0.01140296 0.020642942 0.015545178 -0.013602381 -0.008362608 -0.007016631 0.014825986 -0.01621317 0.009398421 47.800457 5.5464096 103.47313 -28.451204 -36.846798 78.38931 -0.612529 -22.210724 -3.2506497 0.0018061531 0.010030453 0.036676977 0.015088894 0.018721886 0.01053768 -0.0006403834 0.00087150186 -0.04624104 7.729267 5.5075808 0.4435902 0.013069737 0.019641057 0.00024200258 2.8887138 0.97973466 0.14118235 -0.00064201176 0.02947114 0.012784491 10.333157 0.75424767 0.0152798295 0.0075186314 -0.005553036 -0.010679411 2.222879 -0.749477 -0.2234358 0.010799914 -0.014368768 0.004406549 -9.337798 17.256176 -104.15341 27.488108 -42.76764 -88.90572 1.2993793 30.624151 -4.8202705 -0.012705263 0.0026804518 0.0055764243 -0.0040655667 0.0040707937 -0.037682876 0.011288809 0.017362509 -0.022450378 -7.744175 5.4462743 -0.4033412 0.022562152 -0.020743182 0.01504183 -2.928008 0.980205 -0.13540193 0.022636687 -0.01632533 0.00558395 -10.257733 0.75079626 -0.027189635 -0.013125958 0.050446484 -0.0047877654 -2.2224278 -0.7133639 0.20235424 0.016642539 0.010082018 0.008942602 -12.570841 -38.802166 -4.772667 -1.1385735 63.48183 1.6103778 1.515767 -10.595404 4.649234 -0.038895044 0.016196923 0.012733109 -14.702724 -21.13009 -12.107625 0.22090958 36.241978 -0.6487907 1.5364323 -22.08235 3.1349816
-1.9338074 83.438965 -73.44673 6.4335327 22.60026 7.73507 -5.562125 -10.508933 5.9007807 0.574656 -12.402016 1.989411 -5.5333247 16.267149 -8.993206 8.736 -30.041126 -14.370118 0.0062009864 0.015665416 0.004041633 -0.0055994913 -0.0050462945 -0.005649005 0.01852071 -0.024967946 -0.00077646313 37.508343 1.1650571 107.92012 -28.288033 -32.674618 71.51728 -0.58086 -20.947237 -3.0812871 -0.009875133 -0.011452035 0.03952917 0.029976772 0.015353054 0.015846755 0.0033806153 -0.013479447 -0.043966714 7.7475924 5.4980493 0.4383369 0.005425905 0.010173511 0.010225789 2.9099047 0.9642228 0.1184726 -0.0098489635 0.012455244 0.010684603 10.339527 0.7535272 0.021967564 -0.00031674997 0.00087295886 -0.0074197855 2.2205522 -0.7523353 -0.23528263 -0.002810376 -0.012628938 0.006365938 -18.569983 13.5922575 -101.11342 27.45547 -42.910683 -89.22056 1.5337862 32.36633 -5.153952 -0.013671715 0.016939955 0.007880699 0.00095700665 0.0034948357 -0.041484952 0.0003647763 0.025240637 -0.021297615 -7.7679257 5.451781 -0.3897846 0.012998444 -0.016531667 0.010082387 -2.9159887 0.97330904 -0.12938185 0.01897169 -0.028414886 -0.00876843 -10.259173 0.7731717 -0.026729884 0.0040453216 0.0480187 -0.019523967 -2.2064636 -0.7055816 0.2039991 0.009891566 0.0036875578 0.009252718 -9.305174 -34.088932 13.229405 -0.4924506 49.83167 0.8709202 2.917927 -15.646287 8.039704 -0.017892046 0.014724616 0.0268059 -10.549763 -16.994267 -16.74028 0.15549658 31.816563 -0.45000032 -3.444584 -18.764343 -9.243555
-6.4982758 83.8014 -68.771545 5.9768167 48.454483 8.325759 -3.1684792 -10.186283 9.472891 -1.6751391 -12.364853 2.8140152 -5.4975986 14.145208 2.0991561 4.58086 -26.008074 6.935937 0.027875664 0.010073469 0.00708928 0.0126094315 0.0012469953 -0.016531114 0.025746366 -0.04249291 -0.0109239435 27.628443 -2.2130735 105.75254 -27.519283 -28.372795 64.67501 -0.5068002 -19.530668 -2.869866 -0.013686853 -0.015972817 0.037537836 0.03822659 0.021130487 0.009458962 0.0034382243 -0.022686457 -0.016769307 7.763402 5.47784 0.4390837 0.0014146308 0.0071057766 0.018727064 2.9208267 0.9597492 0.10574883 -0.018217916 0.0023922133 0.016209118 10.328281 0.76259106 0.01757913 -0.009671997 0.006597315 -0.0047430135 2.2202165 -0.7439324 -0.2251756 -0.02001425 0.0028771677 0.027926905 -24.328182 12.696807 -99.70502 27.441408 -42.91384 -89.275154 1.0189224 26.14402 -4.0190296 -0.013803702 0.026943155 0.0074763037 0.008934752 0.0038649251 -0.018605605 -0.006922122 0.029894162 -0.01777484 -7.7765474 5.469953 -0.3957544 0.0019472971 -0.013285033 0.00961066 -2.914529 0.9752843 -0.12125464 0.0135762505 -0.028530331 -0.023458604 -10.264729 0.7875444 -0.023525098 0.004641078 0.03848966 -0.022425795 -2.2015488 -0.7049544 0.20567498 0.006019324 0.007087273 0.011226663 -10.070847 -23.702822 18.815695 -0.25314987 38.797215 0.49767974 6.078189 -15.570149 17.687489 -0.003431634 0.016493544 0.037150934 -5.1379952 -18.482014 -22.426432 0.16825034 31.738245 -0.3444695 -7.4512205 -14.749044 -23.089508
-11.433594 83.67058 -64.33832 -0.08115374 76.40313 4.0804033 2.5187 -8.905162 14.450654 -4.3777413 -10.869221 3.907706 -6.2764115 13.956975 10.510189 5.3340693 -20.390192 23.281797 0.037572343 0.001855595 0.01602673 0.03132284 0.009428835 -0.025057187 0.024989767 -0.04081846 -0.025483787 22.551199 -2.5835783 99.32364 -26.901146 -26.155487 61.216217 -0.4193533 -17.667542 -2.5865717 -0.025956701 -0.009860275 0.03152309 0.038886994 0.043964196 -0.0038869556 -0.0024746943 -0.014652796 0.007956568 7.752226 5.4578 0.43745574 0.004735687 0.0053871903 0.029615693 2.8946774 0.9590426 0.13072722 -0.013243822 0.0108740255 0.0065534096 10.316432 0.7697556 0.015101792 -0.01398532 0.012356361 -0.0053331754 2.2216313 -0.7432394 -0.21998933 -0.015696684 0.004478391 0.037900757 -26.640654 16.147219 -99.94316 27.119614 -43.647053 -90.74659 0.57434785 19.205664 -2.8702638 -0.0186147 0.026669854 0.008144858 0.0011737839 -0.003966197 -0.00028605366 -0.0016226089 0.022483718 -0.013999622 -7.778306 5.479343 -0.3936612 -0.008197637 -0.0082496945 0.0057611717 -2.9219508 0.96940744 -0.115678556 0.011049726 -0.012363096 -0.027032278 -10.261101 0.78767425 -0.020584863 -0.007448149 0.030599343 -0.017143447 -2.203419 -0.70867646 0.20593376 0.003705762 0.0186338 0.008431094 -5.9605026 -13.143084 7.4665866 -0.109836 30.555532 0.44759265 6.7021317 -18.818932 18.816496 -0.0052724644 0.025134442 0.041666795 -0.7349093 -27.321148 -27.609596 0.27177218 36.49074 -0.49897265 -6.033984 -11.404022 -22.158134
-15.893799 83.31863 -60.078728 -163.95622 79.09936 -158.49426 8.258253 -6.500782 19.364807 -6.438822 -9.468085 5.034037 -6.740074 13.743471 12.630262 7.6187787 -14.103928 27.32276 0.030551625 -0.010130898 0.018633628 0.038113877 0.0072193393 -0.008137949 0.020307979 -0.025315942 -0.030762566 23.691309 -1.2071228 90.695045 -26.461437 -24.81968 59.11867 -0.3913033 -17.638714 -2.544291 -0.028270202 -0.005079847 0.010998477 0.01870066 0.051245354 -0.015808305 -0.022430899 -0.004933124 0.0041478286 7.716866 5.463027 0.44482654 0.010771513 -0.004190103 0.036090452 2.864483 0.95454085 0.15829578 -0.012652277 0.024362795 -0.0047044954 10.326654 0.7544379 0.026950644 -0.01638189 0.0144365495 0.0005918453 2.2314022 -0.74403846 -0.23248525 0.008877001 -0.010687418 0.015653094 -26.968168 24.784904 -99.67143 26.660295 -44.732952 -92.899956 0.3117788 14.031625 -2.0342185 -0.024424722 0.025658077 0.016282158 -0.006414078 -0.0140895005 0.00017505421 -0.00024865277 0.0078003914 -0.02074523 -7.764123 5.471238 -0.39201984 -0.013027871 0.0023003838 -0.015680997 -2.9150293 0.97029436 -0.100905865 0.017422695 -0.004483564 -0.025626875 -10.264444 0.7695873 -0.019239374 -0.016956221 0.022063293 -0.017037041 -2.2068722 -0.72611135 0.21363743 0.0038548508 0.027426004 0.005669606 2.7158618 -10.573003 -5.229517 -0.026523972 26.327011 0.6456953 1.7673261 -23.714447 5.317261 -0.0016779766 0.02288028 0.031172032 1.387701 -38.623703 -22.974766 0.47591022 44.619946 -0.9546954 0.014724491 -11.716126 -1.8627493
